<svg id="visual" viewBox="0 0 900 600" width="900" height="600" xmlns="http://www.w3.org/2000/svg" xmlns:xlink="http://www.w3.org/1999/xlink" version="1.1"><rect x="0" y="0" width="900" height="600" fill="#11151c"></rect><defs><linearGradient id="grad1_0" x1="33.3%" y1="100%" x2="100%" y2="0%"><stop offset="20%" stop-color="#0d1b2a" stop-opacity="1"></stop><stop offset="80%" stop-color="#0d1b2a" stop-opacity="1"></stop></linearGradient></defs><defs><linearGradient id="grad1_1" x1="33.3%" y1="100%" x2="100%" y2="0%"><stop offset="20%" stop-color="#0d1b2a" stop-opacity="1"></stop><stop offset="80%" stop-color="#0f1925" stop-opacity="1"></stop></linearGradient></defs><defs><linearGradient id="grad1_2" x1="33.3%" y1="100%" x2="100%" y2="0%"><stop offset="20%" stop-color="#111721" stop-opacity="1"></stop><stop offset="80%" stop-color="#0f1925" stop-opacity="1"></stop></linearGradient></defs><defs><linearGradient id="grad1_3" x1="33.3%" y1="100%" x2="100%" y2="0%"><stop offset="20%" stop-color="#111721" stop-opacity="1"></stop><stop offset="80%" stop-color="#11151c" stop-opacity="1"></stop></linearGradient></defs><defs><linearGradient id="grad2_0" x1="0%" y1="100%" x2="66.7%" y2="0%"><stop offset="20%" stop-color="#0d1b2a" stop-opacity="1"></stop><stop offset="80%" stop-color="#0d1b2a" stop-opacity="1"></stop></linearGradient></defs><defs><linearGradient id="grad2_1" x1="0%" y1="100%" x2="66.7%" y2="0%"><stop offset="20%" stop-color="#0f1925" stop-opacity="1"></stop><stop offset="80%" stop-color="#0d1b2a" stop-opacity="1"></stop></linearGradient></defs><defs><linearGradient id="grad2_2" x1="0%" y1="100%" x2="66.7%" y2="0%"><stop offset="20%" stop-color="#0f1925" stop-opacity="1"></stop><stop offset="80%" stop-color="#111721" stop-opacity="1"></stop></linearGradient></defs><defs><linearGradient id="grad2_3" x1="0%" y1="100%" x2="66.7%" y2="0%"><stop offset="20%" stop-color="#11151c" stop-opacity="1"></stop><stop offset="80%" stop-color="#111721" stop-opacity="1"></stop></linearGradient></defs><g transform="translate(900, 600)"><path d="M-486.7 0C-439.1 -51.5 -391.4 -103 -360.3 -149.2C-329.2 -195.5 -314.6 -236.5 -291.3 -291.3C-268.1 -346.2 -236.3 -414.8 -186.3 -449.7C-136.3 -484.6 -68.1 -485.7 0 -486.7L0 0Z" fill="#11161e"></path><path d="M-365.1 0C-329.3 -38.6 -293.6 -77.2 -270.2 -111.9C-246.9 -146.6 -235.9 -177.4 -218.5 -218.5C-201.1 -259.6 -177.2 -311.1 -139.7 -337.3C-102.2 -363.4 -51.1 -364.2 0 -365.1L0 0Z" fill="#101823"></path><path d="M-243.4 0C-219.5 -25.7 -195.7 -51.5 -180.2 -74.6C-164.6 -97.7 -157.3 -118.2 -145.7 -145.7C-134 -173.1 -118.1 -207.4 -93.1 -224.8C-68.1 -242.3 -34.1 -242.8 0 -243.4L0 0Z" fill="#0e1a28"></path><path d="M-121.7 0C-109.8 -12.9 -97.9 -25.7 -90.1 -37.3C-82.3 -48.9 -78.6 -59.1 -72.8 -72.8C-67 -86.5 -59.1 -103.7 -46.6 -112.4C-34.1 -121.1 -17 -121.4 0 -121.7L0 0Z" fill="#0d1b2a"></path></g><g transform="translate(0, 0)"><path d="M486.7 0C431.8 47.1 376.9 94.3 351.1 145.4C325.2 196.6 328.5 251.8 307.6 307.6C286.7 363.4 241.6 419.7 186.3 449.7C131 479.7 65.5 483.2 0 486.7L0 0Z" fill="#11161e"></path><path d="M365.1 0C323.9 35.3 282.7 70.7 263.3 109.1C243.9 147.4 246.4 188.9 230.7 230.7C215 272.5 181.2 314.8 139.7 337.3C98.2 359.7 49.1 362.4 0 365.1L0 0Z" fill="#101823"></path><path d="M243.4 0C215.9 23.6 188.5 47.1 175.5 72.7C162.6 98.3 164.3 125.9 153.8 153.8C143.3 181.7 120.8 209.9 93.1 224.8C65.5 239.8 32.7 241.6 0 243.4L0 0Z" fill="#0e1a28"></path><path d="M121.7 0C108 11.8 94.2 23.6 87.8 36.4C81.3 49.1 82.1 63 76.9 76.9C71.7 90.8 60.4 104.9 46.6 112.4C32.7 119.9 16.4 120.8 0 121.7L0 0Z" fill="#0d1b2a"></path></g></svg>