<svg id="visual" viewBox="0 0 900 600" width="900" height="600" xmlns="http://www.w3.org/2000/svg" xmlns:xlink="http://www.w3.org/1999/xlink" version="1.1"><rect x="0" y="0" width="900" height="600" fill="#001220"></rect><defs><linearGradient id="grad1_0" x1="33.3%" y1="0%" x2="100%" y2="100%"><stop offset="20%" stop-color="#001220" stop-opacity="1"></stop><stop offset="80%" stop-color="#001220" stop-opacity="1"></stop></linearGradient></defs><defs><linearGradient id="grad2_0" x1="0%" y1="0%" x2="66.7%" y2="100%"><stop offset="20%" stop-color="#001220" stop-opacity="1"></stop><stop offset="80%" stop-color="#001220" stop-opacity="1"></stop></linearGradient></defs><g transform="translate(900, 0)"><path d="M0 486.7C-68.2 477.5 -136.4 468.3 -177.9 429.6C-219.5 390.9 -234.5 322.7 -282.1 282.1C-329.8 241.6 -410.1 228.7 -449.7 186.3C-489.2 143.9 -488 71.9 -486.7 0L0 0Z" fill="#FBAE3C"></path></g><g transform="translate(0, 600)"><path d="M0 -486.7C42.4 -430.5 84.7 -374.2 148.9 -359.4C213 -344.6 298.9 -371.2 344.2 -344.2C389.5 -317.2 394.1 -236.6 411.1 -170.3C428.1 -104 457.4 -52 486.7 0L0 0Z" fill="#FBAE3C"></path></g></svg>