<svg id="visual" viewBox="0 0 900 600" width="900" height="600" xmlns="http://www.w3.org/2000/svg" xmlns:xlink="http://www.w3.org/1999/xlink" version="1.1"><rect x="0" y="0" width="900" height="600" fill="#001220"></rect><path d="M0 372L21.5 379.2C43 386.3 86 400.7 128.8 406C171.7 411.3 214.3 407.7 257.2 396.8C300 386 343 368 385.8 361.7C428.7 355.3 471.3 360.7 514.2 364.7C557 368.7 600 371.3 642.8 377.8C685.7 384.3 728.3 394.7 771.2 398.2C814 401.7 857 398.3 878.5 396.7L900 395L900 601L878.5 601C857 601 814 601 771.2 601C728.3 601 685.7 601 642.8 601C600 601 557 601 514.2 601C471.3 601 428.7 601 385.8 601C343 601 300 601 257.2 601C214.3 601 171.7 601 128.8 601C86 601 43 601 21.5 601L0 601Z" fill="#fa7268"></path><path d="M0 402L21.5 410C43 418 86 434 128.8 444.7C171.7 455.3 214.3 460.7 257.2 452.2C300 443.7 343 421.3 385.8 423.7C428.7 426 471.3 453 514.2 465.8C557 478.7 600 477.3 642.8 476.3C685.7 475.3 728.3 474.7 771.2 473.5C814 472.3 857 470.7 878.5 469.8L900 469L900 601L878.5 601C857 601 814 601 771.2 601C728.3 601 685.7 601 642.8 601C600 601 557 601 514.2 601C471.3 601 428.7 601 385.8 601C343 601 300 601 257.2 601C214.3 601 171.7 601 128.8 601C86 601 43 601 21.5 601L0 601Z" fill="#ef5f67"></path><path d="M0 495L21.5 485.7C43 476.3 86 457.7 128.8 458.2C171.7 458.7 214.3 478.3 257.2 480.8C300 483.3 343 468.7 385.8 462.8C428.7 457 471.3 460 514.2 457.5C557 455 600 447 642.8 452.3C685.7 457.7 728.3 476.3 771.2 486.5C814 496.7 857 498.3 878.5 499.2L900 500L900 601L878.5 601C857 601 814 601 771.2 601C728.3 601 685.7 601 642.8 601C600 601 557 601 514.2 601C471.3 601 428.7 601 385.8 601C343 601 300 601 257.2 601C214.3 601 171.7 601 128.8 601C86 601 43 601 21.5 601L0 601Z" fill="#e34c67"></path><path d="M0 491L21.5 494C43 497 86 503 128.8 502C171.7 501 214.3 493 257.2 496.7C300 500.3 343 515.7 385.8 518.7C428.7 521.7 471.3 512.3 514.2 508.5C557 504.7 600 506.3 642.8 503C685.7 499.7 728.3 491.3 771.2 496.5C814 501.7 857 520.3 878.5 529.7L900 539L900 601L878.5 601C857 601 814 601 771.2 601C728.3 601 685.7 601 642.8 601C600 601 557 601 514.2 601C471.3 601 428.7 601 385.8 601C343 601 300 601 257.2 601C214.3 601 171.7 601 128.8 601C86 601 43 601 21.5 601L0 601Z" fill="#d53867"></path><path d="M0 528L21.5 531.3C43 534.7 86 541.3 128.8 546.8C171.7 552.3 214.3 556.7 257.2 554.2C300 551.7 343 542.3 385.8 537.3C428.7 532.3 471.3 531.7 514.2 534.7C557 537.7 600 544.3 642.8 545.5C685.7 546.7 728.3 542.3 771.2 541C814 539.7 857 541.3 878.5 542.2L900 543L900 601L878.5 601C857 601 814 601 771.2 601C728.3 601 685.7 601 642.8 601C600 601 557 601 514.2 601C471.3 601 428.7 601 385.8 601C343 601 300 601 257.2 601C214.3 601 171.7 601 128.8 601C86 601 43 601 21.5 601L0 601Z" fill="#c62368"></path></svg>