<svg xmlns="http://www.w3.org/2000/svg" version="1.1" xmlns:xlink="http://www.w3.org/1999/xlink" xmlns:svgjs="http://svgjs.dev/svgjs" viewBox="0 0 2400 800" opacity="1"><defs><linearGradient x1="50%" y1="0%" x2="50%" y2="100%" id="sssurf-grad"><stop stop-color="#aaa0b0" stop-opacity="1" offset="0%"></stop><stop stop-color="hsl(208, 74%, 93%)" stop-opacity="1" offset="100%"></stop></linearGradient></defs><g fill="url(#sssurf-grad)" transform="matrix(1,0,0,1,0,-1098.77099609375)"><path d="M 0 329.53903500423957 Q 450 488.2845335444359 600 320.15903741661486 Q 1050 622.4850587135144 1200 311.541981412817 Q 1650 593.879532896593 1800 315.7348595074819 Q 2250 578.6479748052764 2400 317.8180006328998 L 2400 800 L 0 800 L 0 312.74962834373207 Z" transform="matrix(1,0,0,1,0,127)" opacity="0.05"></path><path d="M 0 329.53903500423957 Q 450 488.2845335444359 600 320.15903741661486 Q 1050 622.4850587135144 1200 311.541981412817 Q 1650 593.879532896593 1800 315.7348595074819 Q 2250 578.6479748052764 2400 317.8180006328998 L 2400 800 L 0 800 L 0 312.74962834373207 Z" transform="matrix(1,0,0,1,0,254)" opacity="0.11"></path><path d="M 0 329.53903500423957 Q 450 488.2845335444359 600 320.15903741661486 Q 1050 622.4850587135144 1200 311.541981412817 Q 1650 593.879532896593 1800 315.7348595074819 Q 2250 578.6479748052764 2400 317.8180006328998 L 2400 800 L 0 800 L 0 312.74962834373207 Z" transform="matrix(1,0,0,1,0,381)" opacity="0.17"></path><path d="M 0 329.53903500423957 Q 450 488.2845335444359 600 320.15903741661486 Q 1050 622.4850587135144 1200 311.541981412817 Q 1650 593.879532896593 1800 315.7348595074819 Q 2250 578.6479748052764 2400 317.8180006328998 L 2400 800 L 0 800 L 0 312.74962834373207 Z" transform="matrix(1,0,0,1,0,508)" opacity="0.23"></path><path d="M 0 329.53903500423957 Q 450 488.2845335444359 600 320.15903741661486 Q 1050 622.4850587135144 1200 311.541981412817 Q 1650 593.879532896593 1800 315.7348595074819 Q 2250 578.6479748052764 2400 317.8180006328998 L 2400 800 L 0 800 L 0 312.74962834373207 Z" transform="matrix(1,0,0,1,0,635)" opacity="0.29"></path><path d="M 0 329.53903500423957 Q 450 488.2845335444359 600 320.15903741661486 Q 1050 622.4850587135144 1200 311.541981412817 Q 1650 593.879532896593 1800 315.7348595074819 Q 2250 578.6479748052764 2400 317.8180006328998 L 2400 800 L 0 800 L 0 312.74962834373207 Z" transform="matrix(1,0,0,1,0,762)" opacity="0.35"></path><path d="M 0 329.53903500423957 Q 450 488.2845335444359 600 320.15903741661486 Q 1050 622.4850587135144 1200 311.541981412817 Q 1650 593.879532896593 1800 315.7348595074819 Q 2250 578.6479748052764 2400 317.8180006328998 L 2400 800 L 0 800 L 0 312.74962834373207 Z" transform="matrix(1,0,0,1,0,889)" opacity="0.41"></path><path d="M 0 329.53903500423957 Q 450 488.2845335444359 600 320.15903741661486 Q 1050 622.4850587135144 1200 311.541981412817 Q 1650 593.879532896593 1800 315.7348595074819 Q 2250 578.6479748052764 2400 317.8180006328998 L 2400 800 L 0 800 L 0 312.74962834373207 Z" transform="matrix(1,0,0,1,0,1016)" opacity="0.47"></path><path d="M 0 329.53903500423957 Q 450 488.2845335444359 600 320.15903741661486 Q 1050 622.4850587135144 1200 311.541981412817 Q 1650 593.879532896593 1800 315.7348595074819 Q 2250 578.6479748052764 2400 317.8180006328998 L 2400 800 L 0 800 L 0 312.74962834373207 Z" transform="matrix(1,0,0,1,0,1143)" opacity="0.53"></path><path d="M 0 329.53903500423957 Q 450 488.2845335444359 600 320.15903741661486 Q 1050 622.4850587135144 1200 311.541981412817 Q 1650 593.879532896593 1800 315.7348595074819 Q 2250 578.6479748052764 2400 317.8180006328998 L 2400 800 L 0 800 L 0 312.74962834373207 Z" transform="matrix(1,0,0,1,0,1270)" opacity="0.58"></path><path d="M 0 329.53903500423957 Q 450 488.2845335444359 600 320.15903741661486 Q 1050 622.4850587135144 1200 311.541981412817 Q 1650 593.879532896593 1800 315.7348595074819 Q 2250 578.6479748052764 2400 317.8180006328998 L 2400 800 L 0 800 L 0 312.74962834373207 Z" transform="matrix(1,0,0,1,0,1397)" opacity="0.64"></path><path d="M 0 329.53903500423957 Q 450 488.2845335444359 600 320.15903741661486 Q 1050 622.4850587135144 1200 311.541981412817 Q 1650 593.879532896593 1800 315.7348595074819 Q 2250 578.6479748052764 2400 317.8180006328998 L 2400 800 L 0 800 L 0 312.74962834373207 Z" transform="matrix(1,0,0,1,0,1524)" opacity="0.70"></path><path d="M 0 329.53903500423957 Q 450 488.2845335444359 600 320.15903741661486 Q 1050 622.4850587135144 1200 311.541981412817 Q 1650 593.879532896593 1800 315.7348595074819 Q 2250 578.6479748052764 2400 317.8180006328998 L 2400 800 L 0 800 L 0 312.74962834373207 Z" transform="matrix(1,0,0,1,0,1651)" opacity="0.76"></path><path d="M 0 329.53903500423957 Q 450 488.2845335444359 600 320.15903741661486 Q 1050 622.4850587135144 1200 311.541981412817 Q 1650 593.879532896593 1800 315.7348595074819 Q 2250 578.6479748052764 2400 317.8180006328998 L 2400 800 L 0 800 L 0 312.74962834373207 Z" transform="matrix(1,0,0,1,0,1778)" opacity="0.82"></path><path d="M 0 329.53903500423957 Q 450 488.2845335444359 600 320.15903741661486 Q 1050 622.4850587135144 1200 311.541981412817 Q 1650 593.879532896593 1800 315.7348595074819 Q 2250 578.6479748052764 2400 317.8180006328998 L 2400 800 L 0 800 L 0 312.74962834373207 Z" transform="matrix(1,0,0,1,0,1905)" opacity="0.88"></path><path d="M 0 329.53903500423957 Q 450 488.2845335444359 600 320.15903741661486 Q 1050 622.4850587135144 1200 311.541981412817 Q 1650 593.879532896593 1800 315.7348595074819 Q 2250 578.6479748052764 2400 317.8180006328998 L 2400 800 L 0 800 L 0 312.74962834373207 Z" transform="matrix(1,0,0,1,0,2032)" opacity="0.94"></path><path d="M 0 329.53903500423957 Q 450 488.2845335444359 600 320.15903741661486 Q 1050 622.4850587135144 1200 311.541981412817 Q 1650 593.879532896593 1800 315.7348595074819 Q 2250 578.6479748052764 2400 317.8180006328998 L 2400 800 L 0 800 L 0 312.74962834373207 Z" transform="matrix(1,0,0,1,0,2159)" opacity="1.00"></path></g></svg>