<svg xmlns="http://www.w3.org/2000/svg" version="1.1" xmlns:xlink="http://www.w3.org/1999/xlink" xmlns:svgjs="http://svgjs.dev/svgjs" viewBox="0 0 2400 800" opacity="1"><defs><linearGradient x1="50%" y1="0%" x2="50%" y2="100%" id="sssurf-grad"><stop stop-color="#8893b5" stop-opacity="1" offset="0%"></stop><stop stop-color="#aaa0b0" stop-opacity="1" offset="100%"></stop></linearGradient></defs><g fill="url(#sssurf-grad)" transform="matrix(1,0,0,1,0,-496.4058837890625)"><path d="M 0 307.61662918830274 Q 600 450 600 302.8117544989863 Q 1200 450 1200 330.771419813474 Q 1800 450 1800 321.7956213887693 Q 2400 450 2400 314.4691618965403 L 2400 800 L 0 800 L 0 326.4490184403645 Z" transform="matrix(1,0,0,1,0,109)" opacity="0.05"></path><path d="M 0 307.61662918830274 Q 600 450 600 302.8117544989863 Q 1200 450 1200 330.771419813474 Q 1800 450 1800 321.7956213887693 Q 2400 450 2400 314.4691618965403 L 2400 800 L 0 800 L 0 326.4490184403645 Z" transform="matrix(1,0,0,1,0,218)" opacity="0.17"></path><path d="M 0 307.61662918830274 Q 600 450 600 302.8117544989863 Q 1200 450 1200 330.771419813474 Q 1800 450 1800 321.7956213887693 Q 2400 450 2400 314.4691618965403 L 2400 800 L 0 800 L 0 326.4490184403645 Z" transform="matrix(1,0,0,1,0,327)" opacity="0.29"></path><path d="M 0 307.61662918830274 Q 600 450 600 302.8117544989863 Q 1200 450 1200 330.771419813474 Q 1800 450 1800 321.7956213887693 Q 2400 450 2400 314.4691618965403 L 2400 800 L 0 800 L 0 326.4490184403645 Z" transform="matrix(1,0,0,1,0,436)" opacity="0.41"></path><path d="M 0 307.61662918830274 Q 600 450 600 302.8117544989863 Q 1200 450 1200 330.771419813474 Q 1800 450 1800 321.7956213887693 Q 2400 450 2400 314.4691618965403 L 2400 800 L 0 800 L 0 326.4490184403645 Z" transform="matrix(1,0,0,1,0,545)" opacity="0.53"></path><path d="M 0 307.61662918830274 Q 600 450 600 302.8117544989863 Q 1200 450 1200 330.771419813474 Q 1800 450 1800 321.7956213887693 Q 2400 450 2400 314.4691618965403 L 2400 800 L 0 800 L 0 326.4490184403645 Z" transform="matrix(1,0,0,1,0,654)" opacity="0.64"></path><path d="M 0 307.61662918830274 Q 600 450 600 302.8117544989863 Q 1200 450 1200 330.771419813474 Q 1800 450 1800 321.7956213887693 Q 2400 450 2400 314.4691618965403 L 2400 800 L 0 800 L 0 326.4490184403645 Z" transform="matrix(1,0,0,1,0,763)" opacity="0.76"></path><path d="M 0 307.61662918830274 Q 600 450 600 302.8117544989863 Q 1200 450 1200 330.771419813474 Q 1800 450 1800 321.7956213887693 Q 2400 450 2400 314.4691618965403 L 2400 800 L 0 800 L 0 326.4490184403645 Z" transform="matrix(1,0,0,1,0,872)" opacity="0.88"></path><path d="M 0 307.61662918830274 Q 600 450 600 302.8117544989863 Q 1200 450 1200 330.771419813474 Q 1800 450 1800 321.7956213887693 Q 2400 450 2400 314.4691618965403 L 2400 800 L 0 800 L 0 326.4490184403645 Z" transform="matrix(1,0,0,1,0,981)" opacity="1.00"></path></g></svg>