<svg width="1001" height="1079" viewBox="0 0 1001 1079" fill="none" xmlns="http://www.w3.org/2000/svg">
<g clip-path="url(#clip0_0_1)">
<path d="M500.575 1077.57C497.961 1077.57 495.347 1076.57 493.351 1074.57L86.9027 668.078C-28.9659 551.977 -28.9659 363.065 86.8927 246.965C200.566 133.41 384.048 131.094 500.565 239.976C616.993 131.054 800.375 133.4 914.068 246.955C1029.94 363.065 1029.94 551.977 914.078 668.078L507.799 1074.57C505.804 1076.57 503.189 1077.57 500.575 1077.57ZM297.356 180.453C226.37 180.453 155.384 207.439 101.351 261.431C-6.55453 369.545 -6.55453 545.498 101.361 653.621L500.575 1052.89L899.619 653.621C1007.54 545.498 1007.53 369.545 899.609 261.421C791.504 153.417 615.745 153.437 507.799 261.421C503.808 265.414 497.342 265.405 493.351 261.431C439.318 207.439 368.332 180.453 297.356 180.453Z" fill="#6C85BA"/>
<path d="M500.575 1057.57C497.961 1057.57 495.347 1056.58 493.351 1054.58L86.9027 648.078C-28.9659 531.978 -28.9659 343.066 86.8927 226.965C200.566 113.41 384.048 111.094 500.565 219.976C616.993 111.054 800.375 113.4 914.068 226.955C1029.94 343.066 1029.94 531.978 914.078 648.078L507.799 1054.58C505.804 1056.58 503.189 1057.57 500.575 1057.57ZM297.356 160.453C226.37 160.453 155.384 187.439 101.351 241.431C-6.55453 349.545 -6.55453 525.498 101.361 633.622L500.575 1032.89L899.619 633.622C1007.54 525.498 1007.53 349.545 899.609 241.421C791.504 133.417 615.745 133.437 507.799 241.421C503.808 245.415 497.342 245.405 493.351 241.431C439.318 187.439 368.332 160.453 297.356 160.453Z" fill="#8893B5"/>
<path d="M500.575 1037.57C497.961 1037.57 495.347 1036.57 493.351 1034.57L86.9027 628.079C-28.9659 511.978 -28.9659 323.066 86.8927 206.965C200.566 93.4101 384.048 91.0938 500.565 199.977C616.993 91.0539 800.375 93.4001 914.068 206.955C1029.94 323.066 1029.94 511.978 914.078 628.079L507.799 1034.57C505.804 1036.57 503.189 1037.57 500.575 1037.57ZM297.356 140.454C226.37 140.454 155.384 167.44 101.351 221.432C-6.55453 329.545 -6.55453 505.498 101.361 613.622L500.575 1012.89L899.619 613.622C1007.54 505.498 1007.53 329.545 899.609 221.422C791.504 113.418 615.745 113.438 507.799 221.422C503.808 225.415 497.342 225.405 493.351 221.432C439.318 167.44 368.332 140.454 297.356 140.454Z" fill="#AAA0B0"/>
<path d="M500.575 1017.57C497.961 1017.57 495.347 1016.58 493.351 1014.58L86.9027 608.078C-28.9659 491.977 -28.9659 303.065 86.8927 186.965C200.566 73.4101 384.048 71.0938 500.565 179.977C616.993 71.0539 800.375 73.4001 914.068 186.955C1029.94 303.066 1029.94 491.977 914.078 608.078L507.799 1014.58C505.804 1016.58 503.189 1017.57 500.575 1017.57ZM297.356 120.454C226.37 120.454 155.384 147.44 101.351 201.432C-6.55453 309.546 -6.55453 485.499 101.361 593.622L500.575 992.891L899.619 593.622C1007.54 485.499 1007.53 309.546 899.609 201.422C791.504 93.4174 615.745 93.4374 507.799 201.422C503.808 205.415 497.342 205.405 493.351 201.432C439.318 147.44 368.332 120.454 297.356 120.454Z" fill="#CCA6AF"/>
<path d="M500.575 997.57C497.961 997.57 495.347 996.572 493.351 994.575L86.9027 588.078C-28.9659 471.977 -28.9659 283.066 86.8927 166.965C200.566 53.41 384.048 51.0938 500.565 159.976C616.993 51.0539 800.375 53.4001 914.068 166.955C1029.94 283.066 1029.94 471.977 914.078 588.078L507.799 994.575C505.804 996.572 503.189 997.57 500.575 997.57ZM297.356 100.453C226.37 100.453 155.384 127.439 101.351 181.431C-6.55453 289.545 -6.55453 465.498 101.361 573.622L500.575 972.891L899.619 573.622C1007.54 465.498 1007.53 289.545 899.609 181.421C791.504 73.4174 615.745 73.4374 507.799 181.421C503.808 185.415 497.342 185.405 493.351 181.431C439.318 127.439 368.332 100.453 297.356 100.453Z" fill="#EEB5A9"/>
<path d="M500.575 977.571C497.961 977.571 495.347 976.572 493.351 974.576L86.9027 568.079C-28.9659 451.978 -28.9659 263.066 86.8927 146.965C200.566 33.4101 384.048 31.0939 500.565 139.977C616.993 31.0539 800.375 33.4001 914.068 146.955C1029.94 263.066 1029.94 451.978 914.078 568.079L507.799 974.576C505.804 976.572 503.189 977.571 500.575 977.571ZM297.356 80.4534C226.37 80.4534 155.384 107.44 101.351 161.432C-6.55453 269.545 -6.55453 445.498 101.361 553.622L500.575 952.891L899.619 553.622C1007.54 445.498 1007.53 269.545 899.609 161.422C791.504 53.4175 615.745 53.4374 507.799 161.422C503.808 165.415 497.342 165.405 493.351 161.432C439.318 107.44 368.332 80.4534 297.356 80.4534Z" fill="#F7C5BD"/>
<path d="M500.575 957.57C497.961 957.57 495.347 956.572 493.351 954.575L86.9027 548.078C-28.9659 431.977 -28.9659 243.065 86.8927 126.965C200.566 13.4101 384.048 11.0939 500.565 119.976C616.993 11.0539 800.375 13.4001 914.068 126.955C1029.94 243.065 1029.94 431.977 914.078 548.078L507.799 954.575C505.804 956.572 503.189 957.57 500.575 957.57ZM297.356 60.4534C226.37 60.4534 155.384 87.4394 101.351 141.431C-6.55453 249.545 -6.55453 425.498 101.361 533.622L500.575 932.891L899.619 533.622C1007.54 425.498 1007.53 249.545 899.609 141.421C791.504 33.4175 615.745 33.4374 507.799 141.421C503.808 145.415 497.342 145.405 493.351 141.431C439.318 87.4394 368.332 60.4534 297.356 60.4534Z" fill="#FDCFC8"/>
<path d="M569.417 728.353L570.278 726.237C571.016 724.391 577.439 707.903 573.724 697.961C571.779 692.793 564.643 684.179 553.421 676.551L553.593 674.557C553.617 674.287 554.085 667.593 549.335 660.186C543.404 650.982 532.38 644.928 516.679 642.122L517.368 509.18C520.813 508.22 523.545 505.956 525.095 502.732C527.187 498.327 526.941 492.519 524.456 487.154C522.708 483.438 517.934 479.969 511.929 477.803V403.652C511.806 401.954 510.994 399.64 509.025 397.819L509.198 370.109C509.124 367.648 507.573 363.613 503.71 362.505L503.685 299.234C503.685 297.733 502.455 296.503 500.953 296.503C499.452 296.503 498.222 297.733 498.222 299.234V362.877C494.801 363.32 492.955 366.568 492.808 369.054L492.734 397.675C490.642 399.496 490.002 401.858 490.002 403.31L489.978 477.014C486.557 478.097 483.431 479.795 480.823 482.084C475.877 486.415 473.564 490.992 473.932 495.693C474.474 502.707 480.946 506.914 481.216 507.087L482.25 507.751L481.29 641.5C469.97 643.617 460.84 648.366 454.048 655.749C448.191 662.098 448.166 669.629 448.289 671.721C447.403 672.189 446.542 672.681 445.754 673.148C433.819 680.236 425.427 690.277 423.36 699.972L423.286 700.465C422.498 716.067 426.091 726.452 426.239 726.895L426.534 727.707C425.181 736.886 427.1 744.663 427.814 747.124C425.993 755.27 426.584 763.07 429.66 770.404C438.938 792.503 467.041 802.322 468.223 802.716L469.035 802.987L467.066 899.95L473.292 900.369L476.024 768.535L487.812 766.615L484.194 901.649L490.494 902.191L494.136 765.582L499.944 764.646L498.911 900.808L504.398 900.415L504.472 890.915L511.978 892.737V899.553L517.368 899.135V769.096L521.01 770.081L524.43 898.443L530.755 897.853L528.196 802.811C537.203 800.891 556.619 792.82 565.774 775.987C570.745 766.832 571.754 756.693 568.924 745.766C569.441 743.551 570.794 736.685 569.416 728.343L569.417 728.353ZM531.346 710.757L534.89 701.086C543.454 703.817 550.172 707.779 554.996 713.095L549.778 719.764C544.635 716.294 538.483 713.194 531.346 710.757ZM433.129 727.517C433.596 725.228 434.335 722.841 435.442 720.478L439.232 724.81C436.55 727.689 434.236 730.913 432.366 734.53C432.391 732.414 432.588 730.15 433.055 727.763L433.129 727.517ZM438.888 714.868C443.194 709.257 449.519 704.975 457.812 701.948L461.651 710.585C455.105 712.997 449.002 716.221 443.81 720.478L438.888 714.868ZM467.68 708.641L463.866 700.028C471.963 697.887 481.609 696.706 492.733 696.46V705.048C484.464 705.245 475.851 706.353 467.68 708.641ZM498.196 696.411C509.935 696.435 520.123 697.42 528.761 699.438L525.292 708.912C517.687 706.869 509.123 705.516 499.649 705.122C499.181 705.098 498.689 705.098 498.197 705.098L498.196 696.411ZM558.883 718.362C561.959 723.481 563.214 728.723 563.559 733.177C561.344 729.88 558.415 726.631 554.773 723.58L558.883 718.362ZM502.946 498.895C506.859 499.412 509.468 501.061 511.092 502.636L510.353 641.161C507.253 640.767 504.275 640.521 501.371 640.348L502.946 498.895ZM498.196 370.483C498.196 369.621 498.639 368.588 501.002 368.563C501.494 368.563 503.561 368.514 503.684 370.212V395.314C502.872 395.166 502.011 395.092 501.026 395.092H500.903C499.919 395.092 499.033 395.166 498.196 395.289L498.196 370.483ZM495.465 403.336C495.465 402.942 495.662 400.58 500.953 400.58H501.026C505.678 400.58 506.342 402.548 506.416 403.287V476.304C502.626 475.565 498.935 475.418 495.465 475.836L495.465 403.336ZM484.981 486.811C492.117 480.535 501.789 481.741 505.603 482.529C512.592 484.005 517.588 487.377 518.72 489.813C520.393 493.43 520.664 497.319 519.384 500.001C519.015 500.739 518.548 501.355 517.982 501.872C515.865 498.943 510.672 493.676 500.509 493.676H500.337C490.715 493.676 485.645 495.005 482.273 499.632C481.289 498.5 480.329 496.974 480.206 495.178C479.985 492.594 481.609 489.764 484.981 486.811ZM488.574 501.921C490.075 499.189 492.437 498.918 496.645 498.894L495.07 640.322C492.486 640.347 490.001 640.667 487.589 640.889L488.574 501.921ZM458.673 660.013C469.772 647.954 488.426 643.918 514.143 648.078C543.576 652.827 546.922 668.159 547.267 672.786C534.175 665.427 518.695 661.391 501.075 660.899C480.502 660.309 465.293 664.148 454.687 668.652C454.982 666.314 455.917 662.991 458.673 660.013ZM429.536 701.037C432.71 687.133 454.785 665.919 500.877 667.174C518.571 667.666 533.977 671.875 546.65 679.676C559.373 687.502 566.362 696.41 567.79 700.2C569.513 704.777 567.987 712.505 566.338 718.214C565.231 715.729 563.828 713.243 562.007 710.831C550.883 696.041 529.301 688.216 497.848 688.216H497.552C465.338 688.216 443.608 696.238 433.002 711.225C431.92 712.751 431.034 714.326 430.246 715.901C429.68 711.939 429.265 706.894 429.536 701.037ZM460.593 750.354L469.797 764.775L469.723 768.466L453.604 756.556C455.203 754.661 457.492 752.47 460.593 750.354ZM450.208 761.895L469.551 776.193L469.305 788.941C463.497 786.307 447.377 777.473 450.208 761.895ZM475.383 762.24L475.58 762.117L466.057 747.179C468.493 745.998 471.274 744.939 474.448 744.029L483.037 760.985L475.383 762.24ZM527.358 772.256L544.585 759.877C546.849 764.922 545.471 769.131 545.422 769.303L545.25 770.041C545.2 770.558 543.601 782.666 527.826 789.212L527.358 772.256ZM526.596 765.07L523.175 764.135L534.716 750.058C537.424 751.584 539.491 753.159 541.016 754.709L526.596 765.07ZM516.506 762.289L512.47 761.181L519.533 744.472C523.076 745.309 526.153 746.244 528.811 747.277L516.506 762.289ZM506.342 759.508L501.641 758.204L500.928 741.789C503.069 741.937 505.308 742.134 507.621 742.404C509.59 742.65 511.436 742.921 513.208 743.216L506.342 759.508ZM494.603 741.568L495.366 758.991L489.533 759.926L480.773 742.626C484.858 741.936 489.46 741.543 494.603 741.568ZM511.952 874.088L504.594 872.316L504.643 866.681L511.953 868.452L511.952 874.088ZM504.693 860.184L504.742 854.548L511.953 856.296V861.956L504.693 860.184ZM504.791 848.076L504.841 842.416L511.953 844.138V849.799L504.791 848.076ZM504.865 835.968L504.914 830.332L511.928 832.03V837.691L504.865 835.968ZM504.964 823.86L505.013 818.224L511.928 819.898V825.558L504.964 823.86ZM505.062 811.752L505.111 806.092L511.928 807.741V813.401L505.062 811.752ZM505.161 799.62L505.21 793.984L511.928 795.608V801.268L505.161 799.62ZM505.234 787.511L505.284 781.876L511.904 783.476V789.136L505.234 787.511ZM505.333 775.404L505.382 767.701L511.879 769.448V777.003L505.333 775.404ZM504.496 884.425L504.545 878.765L511.953 880.561V886.222L504.496 884.425ZM560.237 772.972C553.051 786.187 537.497 794.013 528.023 796.375V795.957L528.638 795.735C548.104 788.476 551.106 773.71 551.476 771.101C551.648 769.28 553.641 762.316 549.039 754.785C543.059 745.015 529.376 738.764 508.409 736.181C457.173 729.881 444.868 758.132 444.351 759.338L444.179 759.88C439.921 779.592 458.649 791.945 469.157 795.735V796.351C464.137 794.406 442.653 785.203 435.442 767.951C431.677 758.969 432.366 749.051 437.46 738.42C439.601 733.941 442.603 730.127 446.147 726.879L447.968 725.279L447.943 725.254C461.355 714.303 481.855 710.71 499.377 711.449C519.778 712.285 538.038 718.389 549.63 727.469L550.171 727.888C555.339 732.047 559.129 736.797 561.098 741.965C565.503 753.383 565.208 763.842 560.237 772.972Z" fill="url(#paint0_linear_0_1)"/>
<path d="M500.575 937.57C497.961 937.57 495.347 936.572 493.351 934.575L86.9027 528.078C-28.9659 411.977 -28.9659 223.065 86.8927 106.965C200.566 -6.58997 384.048 -8.90619 500.565 99.9763C616.993 -8.94612 800.375 -6.59995 914.068 106.955C1029.94 223.065 1029.94 411.977 914.078 528.078L507.799 934.575C505.804 936.572 503.189 937.57 500.575 937.57ZM297.356 40.4533C226.37 40.4533 155.384 67.4393 101.351 121.431C-6.55453 229.545 -6.55453 405.498 101.361 513.622L500.575 912.891L899.619 513.622C1007.54 405.498 1007.53 229.545 899.609 121.421C791.504 13.4174 615.745 13.4374 507.799 121.421C503.808 125.415 497.342 125.405 493.351 121.431C439.318 67.4393 368.332 40.4533 297.356 40.4533Z" fill="#FFB9AD"/>
<path d="M500.575 917.57C497.961 917.57 495.347 916.572 493.351 914.575L86.9027 508.078C-28.9659 391.978 -28.9659 203.066 86.8927 86.9649C200.566 -26.5899 384.048 -28.9062 500.565 79.9763C616.993 -28.9461 800.375 -26.5999 914.068 86.9549C1029.94 203.066 1029.94 391.978 914.078 508.078L507.799 914.575C505.804 916.572 503.189 917.57 500.575 917.57ZM297.356 20.4533C226.37 20.4533 155.384 47.4393 101.351 101.431C-6.55453 209.545 -6.55453 385.498 101.361 493.622L500.575 892.891L899.619 493.622C1007.54 385.498 1007.53 209.545 899.609 101.421C791.504 -6.58258 615.745 -6.56261 507.799 101.421C503.808 105.415 497.342 105.405 493.351 101.431C439.318 47.4393 368.332 20.4533 297.356 20.4533Z" fill="#FFAFA3"/>
</g>
<defs>
<linearGradient id="paint0_linear_0_1" x1="499.023" y1="296.503" x2="499.023" y2="902.191" gradientUnits="userSpaceOnUse">
<stop stop-color="#FDCFC8"/>
<stop offset="0.15" stop-color="#F7C5BD"/>
<stop offset="0.3" stop-color="#EEB5A9"/>
<stop offset="0.45" stop-color="#CCA6AF"/>
<stop offset="0.6" stop-color="#AAA0B0"/>
<stop offset="0.75" stop-color="#8893B5"/>
<stop offset="1" stop-color="#6C85BA"/>
</linearGradient>
<clipPath id="clip0_0_1">
<rect width="1001" height="1079" fill="white"/>
</clipPath>
</defs>
</svg>
