<?xml version="1.0" encoding="UTF-8"?>
<svg width="128pt" height="128pt" version="1.1" viewBox="0 0 128 128" xmlns="http://www.w3.org/2000/svg">
 <path d="m78.512 90.488 0.17188-0.42969c0.15234-0.375 1.457-3.7227 0.69922-5.7422-0.39453-1.0508-1.8438-2.7969-4.125-4.3516l0.03125-0.40625c0.003907-0.058594 0.10156-1.418-0.86719-2.918-1.207-1.8711-3.4414-3.1016-6.6328-3.6719l0.14063-27.012c0.69922-0.19531 1.2578-0.65234 1.5664-1.3086 0.42578-0.89453 0.375-2.0742-0.12891-3.1641-0.35547-0.75781-1.3242-1.4609-2.5469-1.8984v-15.066c-0.023437-0.34375-0.19141-0.81641-0.58984-1.1836l0.03125-5.6289c-0.015625-0.5-0.33203-1.3203-1.1133-1.543l0.003906-12.863c0-0.30859-0.25-0.55469-0.55469-0.55469-0.30859 0-0.55469 0.25-0.55469 0.55469v12.93c-0.69531 0.089843-1.0703 0.75-1.0977 1.2578l-0.015624 5.8164c-0.42188 0.37109-0.55078 0.85156-0.55469 1.1445l-0.003906 14.969c-0.69531 0.22266-1.3281 0.5625-1.8633 1.0312-1.0039 0.87891-1.4766 1.8125-1.4023 2.7656 0.10938 1.4258 1.4258 2.2773 1.4805 2.3125l0.20703 0.13281-0.19531 27.176c-2.3008 0.42969-4.1523 1.3945-5.5352 2.8984-1.1875 1.293-1.1953 2.8203-1.1719 3.2422-0.17969 0.097657-0.35156 0.19531-0.51562 0.28906-2.4258 1.4414-4.1289 3.4766-4.5508 5.4492l-0.011719 0.10156c-0.15625 3.1719 0.57031 5.2773 0.60156 5.3672l0.058594 0.16406c-0.27734 1.8633 0.11328 3.4414 0.26172 3.9453-0.36719 1.6562-0.25 3.2383 0.375 4.7305 1.8867 4.4922 7.5938 6.4844 7.8359 6.5664l0.16406 0.054687-0.39844 19.699 1.2656 0.085938 0.55469-26.781 2.3945-0.39063-0.73438 27.434 1.2812 0.11328 0.74219-27.754 1.1797-0.19141-0.21094 27.664 1.1133-0.082032 0.015625-1.9297 1.5273 0.37109v1.3867l1.0977-0.085937v-26.422l0.73828 0.20312 0.69531 26.078 1.2852-0.12109-0.52344-19.309c1.8281-0.39062 5.7773-2.0273 7.6367-5.4492 1.0117-1.8594 1.2188-3.918 0.63672-6.1406 0.10938-0.44922 0.38281-1.8438 0.10547-3.5352zm-7.7383-3.5781 0.71875-1.9648c1.7383 0.55469 3.1016 1.3633 4.0859 2.4414l-1.0586 1.3555c-1.0469-0.70703-2.2969-1.3359-3.7461-1.832zm-19.953 3.4062c0.097657-0.46875 0.24609-0.94922 0.47266-1.4297l0.77344 0.88281c-0.54297 0.58203-1.0156 1.2422-1.3945 1.9766 0.003906-0.42969 0.042969-0.89062 0.14062-1.375zm1.168-2.5703c0.875-1.1406 2.1602-2.0117 3.8438-2.6211l0.78125 1.7539c-1.3281 0.48828-2.5703 1.1445-3.6211 2.0117zm5.8516-1.2656-0.77734-1.7461c1.6484-0.4375 3.6055-0.67578 5.8633-0.72656v1.7461c-1.6797 0.039063-3.4258 0.26172-5.0859 0.72656zm6.1992-2.4844c2.3828 0.003906 4.4531 0.20703 6.2109 0.61328l-0.70703 1.9219c-1.5469-0.41797-3.2852-0.69141-5.2109-0.76953-0.097656-0.003907-0.19531-0.003907-0.29688-0.007813zm12.328 4.457c0.625 1.043 0.87891 2.1055 0.94922 3.0078-0.44922-0.67188-1.0469-1.3281-1.7812-1.9492zm-11.363-44.586c0.79688 0.10156 1.3242 0.44141 1.6562 0.76172l-0.14844 28.145c-0.62891-0.082032-1.2383-0.13281-1.8242-0.16406zm-0.96484-26.09c0-0.17188 0.089844-0.38672 0.56641-0.39062 0.097656 0 0.52344-0.011719 0.54688 0.33594v5.1016c-0.16406-0.027344-0.34375-0.046875-0.53906-0.046875h-0.023437c-0.19922 0-0.38281 0.015625-0.55078 0.042968zm-0.55469 6.6719c0-0.078125 0.042969-0.55859 1.1133-0.55859h0.015625c0.94531 0 1.0781 0.40234 1.0977 0.55078v14.832c-0.76953-0.15234-1.5195-0.18359-2.2266-0.097657zm-2.1328 16.961c1.4492-1.2734 3.4141-1.0312 4.1914-0.86719 1.4219 0.29688 2.4336 0.98438 2.668 1.4805 0.34375 0.73437 0.39453 1.5273 0.13672 2.0703-0.074218 0.15234-0.17188 0.27734-0.28516 0.37891-0.42969-0.59766-1.4844-1.6641-3.5469-1.6641h-0.035156c-1.9531 0-2.9883 0.26953-3.6719 1.2109-0.19922-0.23047-0.39453-0.53906-0.42188-0.90625-0.046875-0.52734 0.28125-1.1016 0.96484-1.7031zm0.73438 3.0703c0.30859-0.55469 0.78516-0.61328 1.6406-0.61719l-0.32031 28.738c-0.52344 0.003907-1.0312 0.070313-1.5234 0.11719zm-6.0781 32.121c2.2539-2.4531 6.0469-3.2695 11.27-2.4258 5.9805 0.96484 6.6602 4.0781 6.7305 5.0195-2.6602-1.4961-5.8086-2.3164-9.3828-2.418-4.1797-0.12109-7.2695 0.66016-9.4219 1.5742 0.058594-0.47266 0.24609-1.1445 0.80469-1.75zm-5.9141 8.332c0.64844-2.8242 5.1289-7.1367 14.496-6.8789 3.5977 0.10156 6.7266 0.95703 9.3008 2.5391 2.582 1.5898 4.0039 3.4023 4.293 4.1719 0.34766 0.92969 0.042968 2.5-0.29688 3.6602-0.22656-0.50391-0.51172-1.0078-0.88281-1.5039-2.2578-3.0039-6.6445-4.5977-13.035-4.5977h-0.058594c-6.5469 0-10.961 1.6289-13.117 4.6758-0.22266 0.3125-0.40234 0.62891-0.5625 0.94922-0.11328-0.79688-0.19141-1.8242-0.13672-3.0156zm6.3047 10.02 1.8711 2.9336-0.015625 0.75-3.2773-2.418c0.32813-0.38672 0.79297-0.83594 1.4219-1.2656zm-2.1094 2.3477 3.9297 2.9023-0.050781 2.5898c-1.1758-0.53516-4.4492-2.3281-3.8789-5.4922zm5.1172 0.070313 0.039062-0.023438-1.9375-3.0352c0.49609-0.23828 1.0625-0.45703 1.7031-0.63672l1.7422 3.4453zm10.559 2.0352 3.5-2.5156c0.45703 1.0273 0.17969 1.8828 0.16797 1.918l-0.035156 0.15234c-0.011718 0.10547-0.33594 2.5664-3.5391 3.8945zm-0.15625-1.4648-0.69922-0.19141 2.3438-2.8594c0.55078 0.30859 0.96875 0.63281 1.2812 0.94531zm-2.0508-0.5625-0.82031-0.22656 1.4336-3.3945c0.72266 0.16797 1.3438 0.36328 1.8828 0.57031zm-2.0625-0.56641-0.95312-0.26172-0.14453-3.3359c0.4375 0.027344 0.89062 0.066406 1.3633 0.125 0.40234 0.050781 0.77344 0.10547 1.1328 0.16797zm-2.3828-3.6406 0.15234 3.5391-1.1836 0.19141-1.7812-3.5156c0.83203-0.14453 1.7656-0.22266 2.8125-0.21484zm3.5234 26.922-1.4961-0.36328 0.007812-1.1484 1.4883 0.35938zm-1.4766-2.8242 0.007813-1.1445 1.4648 0.35547v1.1484zm0.019531-2.4609 0.007813-1.1484 1.4453 0.35156v1.1484zm0.019532-2.4609 0.007812-1.1445 1.4258 0.34766v1.1484zm0.019531-2.4609 0.007812-1.1484 1.4023 0.33984v1.1484zm0.015625-2.4609 0.007812-1.1484 1.3828 0.33594v1.1484zm0.019531-2.4609 0.007813-1.1484 1.3633 0.33203v1.1484zm0.019531-2.4609 0.007813-1.1484 1.3438 0.32422v1.1484zm0.019532-2.4609 0.011718-1.5664 1.3203 0.35547v1.5352zm-0.17188 22.152 0.007813-1.1484 1.5078 0.36719v1.1484zm11.324-22.648c-1.4609 2.6836-4.6211 4.2773-6.5469 4.7539l-0.003906-0.082031 0.125-0.046875c3.9531-1.4727 4.5625-4.4766 4.6406-5.0039 0.039063-0.37109 0.44141-1.7812-0.49609-3.3125-1.2188-1.9844-3.9961-3.2578-8.2539-3.7812-10.41-1.2773-12.914 4.4609-13.016 4.707l-0.035156 0.10938c-0.86328 4.0039 2.9375 6.5117 5.0742 7.2852l-0.003906 0.125c-1.0195-0.39453-5.3828-2.2656-6.8516-5.7734-0.76172-1.8242-0.625-3.8438 0.41016-6 0.4375-0.91016 1.0469-1.6836 1.7656-2.3438l0.37109-0.32422-0.003907-0.003906c2.7266-2.2266 6.8906-2.957 10.449-2.8047 4.1445 0.17188 7.8516 1.4062 10.211 3.2539l0.10938 0.085937c1.0469 0.84375 1.8164 1.8125 2.2188 2.8594 0.90625 2.3203 0.84375 4.4414-0.16406 6.2969z"/>
</svg>
