<?xml version="1.0" encoding="UTF-8"?>
<svg width="512pt" height="512pt" version="1.1" viewBox="0 0 512 512" xmlns="http://www.w3.org/2000/svg">
 <path d="m314.04 361.95 0.69531-1.7188c0.60547-1.5039 5.8242-14.891 2.793-22.973-1.582-4.2109-7.3711-11.191-16.504-17.406l0.13281-1.6211c0.019532-0.23047 0.40625-5.6641-3.4648-11.672-4.8203-7.4883-13.77-12.41-26.535-14.684l0.57031-108.05c2.793-0.77734 5.0234-2.6172 6.2734-5.2383 1.7031-3.5742 1.5078-8.3047-0.52344-12.652-1.4141-3.0273-5.3008-5.8477-10.188-7.6016l-0.003907-60.262c-0.09375-1.3789-0.76172-3.2656-2.3516-4.7344l0.13281-22.512c-0.054687-1.9922-1.3242-5.2773-4.4531-6.1758l-0.003907-51.457c0-1.2305-0.99609-2.2266-2.2266-2.2266s-2.2266 0.99609-2.2266 2.2266v51.711c-2.7812 0.35938-4.2773 3-4.3945 5.0234l-0.058594 23.262c-1.6914 1.4805-2.2109 3.4023-2.2266 4.5742l0.003906 59.906c-2.7812 0.88281-5.3164 2.2539-7.4453 4.125-4.0156 3.5234-5.9023 7.2422-5.6094 11.066 0.4375 5.6992 5.6992 9.1133 5.9219 9.2539l0.83594 0.53125-0.77734 108.7c-9.1992 1.7227-16.617 5.5781-22.137 11.59-4.7578 5.168-4.7773 11.285-4.6797 12.973-0.71875 0.39062-1.4141 0.77734-2.0586 1.1562-9.707 5.7617-16.512 13.91-18.207 21.797l-0.054687 0.41016c-0.63281 12.684 2.2773 21.117 2.4023 21.469l0.23047 0.65625c-1.1055 7.4609 0.45312 13.773 1.0469 15.773-1.4727 6.6211-1.0078 12.961 1.4961 18.926 7.5391 17.965 30.379 25.934 31.344 26.266l0.66016 0.22656-1.5977 78.793 5.0703 0.34766 2.2188-107.13 9.582-1.5547-2.9414 109.73 5.1172 0.44922 2.9688-111.02 4.7227-0.76562-0.84375 110.66 4.4531-0.32812 0.058594-7.7227 6.1094 1.4844 0.003906 5.543 4.3828-0.34766v-105.69l2.9531 0.80859 2.7852 104.32 5.1445-0.48047-2.0898-77.242c7.3164-1.5547 23.105-8.1133 30.547-21.797 4.0391-7.4336 4.8672-15.68 2.5508-24.555 0.41406-1.793 1.5039-7.375 0.39453-14.141zm-30.953-14.309 2.8789-7.8555c6.9531 2.2227 12.414 5.4492 16.34 9.7617l-4.2422 5.418c-4.1719-2.8281-9.1719-5.3359-14.977-7.3242zm-79.816 13.629c0.38672-1.8711 0.98828-3.793 1.8867-5.7148l3.0898 3.5273c-2.1797 2.3359-4.0625 4.9609-5.582 7.9062 0.011719-1.7148 0.17969-3.5703 0.5625-5.4961zm4.6836-10.293c3.5039-4.5664 8.6406-8.043 15.379-10.492l3.1172 7.0156c-5.3164 1.9531-10.277 4.582-14.492 8.0469zm23.402-5.0469-3.1094-6.9922c6.5898-1.7422 14.422-2.6953 23.453-2.9062v6.9883c-6.7109 0.14453-13.699 1.0508-20.344 2.9102zm24.801-9.9453c9.5352 0.015625 17.816 0.82031 24.852 2.457l-2.8242 7.6914c-6.1836-1.668-13.137-2.7617-20.848-3.082-0.38672-0.015625-0.78906-0.011719-1.1797-0.023437zm49.316 17.828c2.5039 4.168 3.5117 8.4219 3.8008 12.039-1.7969-2.6836-4.1914-5.3164-7.1289-7.793zm-45.465-178.35c3.1836 0.41406 5.3008 1.7656 6.625 3.0469l-0.59375 112.57c-2.5156-0.32031-4.9453-0.53125-7.3008-0.65625zm-3.8516-104.36c0-0.69141 0.35547-1.5469 2.2695-1.5625 0.39453-0.003907 2.0898-0.042969 2.1797 1.3438v20.41c-0.66016-0.11328-1.3672-0.18359-2.1523-0.18359h-0.097656c-0.80469 0-1.5312 0.066407-2.2031 0.16797zm-2.2266 26.691c0.003906-0.31641 0.16406-2.2344 4.457-2.2344h0.0625c3.7812 0 4.3125 1.6094 4.3828 2.2031v59.332c-3.0703-0.60547-6.0742-0.72656-8.9062-0.39062zm-8.5234 67.848c5.8008-5.0898 13.652-4.1289 16.762-3.4727 5.6875 1.1914 9.7422 3.9453 10.668 5.9297 1.3672 2.9336 1.5781 6.1094 0.53906 8.2852-0.29297 0.60938-0.67969 1.1055-1.1406 1.5195-1.7109-2.3828-5.9297-6.6523-14.191-6.6523h-0.13672c-7.8125 0-11.949 1.0742-14.691 4.8398-0.80078-0.92188-1.5742-2.1602-1.6875-3.6172-0.16406-2.1328 1.1406-4.4297 3.8789-6.832zm2.9297 12.281c1.2266-2.2266 3.1445-2.4453 6.5703-2.4688l-1.2891 114.95c-2.1016 0.019531-4.1289 0.28125-6.0898 0.46875zm-24.305 128.47c9.0117-9.8047 24.184-13.074 45.082-9.707 23.918 3.8516 26.645 16.309 26.914 20.074-10.633-5.9844-23.23-9.2617-37.535-9.6641-16.719-0.48047-29.082 2.6406-37.695 6.3008 0.24609-1.8828 1-4.5742 3.2344-7.0039zm-23.668 33.34c2.5859-11.289 20.512-28.547 57.98-27.52 14.391 0.41016 26.91 3.8281 37.211 10.156 10.332 6.3516 16.016 13.605 17.176 16.684 1.3984 3.7227 0.16797 10.004-1.1836 14.633-0.91016-2.0117-2.043-4.0352-3.5273-6.0078-9.0352-12.016-26.574-18.383-52.148-18.383h-0.23047c-26.184 0-43.836 6.5117-52.469 18.707-0.88281 1.25-1.6016 2.5195-2.2461 3.793-0.45703-3.1914-0.78125-7.3008-0.5625-12.062zm25.23 40.07 7.4766 11.727-0.058594 3.0039-13.102-9.6797c1.3086-1.5391 3.1602-3.3242 5.6836-5.0508zm-8.4336 9.3867 15.727 11.617-0.21094 10.367c-4.7148-2.1445-17.812-9.3164-15.516-21.984zm20.461 0.28516 0.15234-0.097657-7.7422-12.137c1.9805-0.96094 4.2461-1.8281 6.8203-2.5508l6.9727 13.777zm42.242 8.1445 14.004-10.066c1.8359 4.1055 0.71875 7.5234 0.67188 7.6641l-0.13672 0.60156c-0.046875 0.42578-1.3477 10.266-14.16 15.582zm-0.63281-5.8555-2.7891-0.76562 9.3789-11.441c2.1953 1.2344 3.8711 2.5273 5.1211 3.7891zm-8.1992-2.25-3.2812-0.89844 5.7422-13.574c2.8867 0.67578 5.375 1.4492 7.5312 2.2812zm-8.2578-2.2656-3.8203-1.0508-0.57812-13.34c1.75 0.11719 3.5586 0.27344 5.4492 0.50391 1.6016 0.19531 3.0938 0.42578 4.5352 0.66797zm-9.5273-14.574 0.61328 14.164-4.7344 0.76953-7.1172-14.066c3.3125-0.57031 7.0469-0.88281 11.238-0.86719zm14.098 107.7-5.9844-1.4492 0.035157-4.5898 5.9453 1.4414zm-5.9102-11.297 0.035156-4.5859 5.8633 1.4219 0.003906 4.5938zm0.074219-9.8398 0.039062-4.5898 5.7812 1.4023 0.003907 4.5977zm0.078125-9.8477 0.035156-4.5859 5.6992 1.3828 0.003906 4.5938zm0.074218-9.8398 0.035157-4.5898 5.6172 1.3633 0.003906 4.5938zm0.074219-9.8438 0.035157-4.5898 5.5352 1.3438 0.003906 4.5938zm0.074219-9.8477 0.035156-4.5898 5.4531 1.3242 0.003907 4.5977zm0.078125-9.8438 0.039063-4.5898 5.3711 1.3047 0.003907 4.5938zm0.074219-9.8438 0.046875-6.2617 5.2773 1.4258 0.003907 6.1328zm-0.67578 88.598 0.035157-4.5898 6.0273 1.4609 0.003907 4.5977zm45.297-90.582c-5.8359 10.738-18.488 17.102-26.191 19.012l-0.007812-0.33203 0.50391-0.1875c15.816-5.8906 18.25-17.906 18.562-20.02 0.14844-1.4766 1.7695-7.1289-1.9844-13.254-4.8672-7.9414-15.977-13.027-33.016-15.121-41.645-5.1172-51.648 17.844-52.055 18.82l-0.13672 0.4375c-3.4531 16.016 11.754 26.055 20.305 29.137l-0.007812 0.5c-4.0781-1.5859-21.531-9.0625-27.402-23.09-3.0547-7.2891-2.5-15.367 1.6445-24.008 1.75-3.6445 4.1836-6.7305 7.0625-9.3711l1.4844-1.3008-0.011718-0.011718c10.898-8.9102 27.559-11.824 41.797-11.227 16.57 0.67969 31.414 5.6328 40.844 13.02l0.44141 0.34766c4.1914 3.3789 7.2695 7.2422 8.875 11.438 3.5625 9.3086 3.3242 17.793-0.70703 25.211z"/>
</svg>
