<?xml version="1.0" encoding="UTF-8"?>
<svg width="3600pt" height="3600pt" version="1.1" viewBox="0 0 3600 3600" xmlns="http://www.w3.org/2000/svg">
 <path d="m2208.1 2544.9 4.8828-12.082c4.2578-10.566 40.961-104.71 19.629-161.53-11.129-29.598-51.84-78.699-116.03-122.38l0.92187-11.41c0.125-1.6133 2.8633-39.836-24.355-82.062-33.902-52.652-96.824-87.246-186.57-103.24l4.0078-759.71c19.645-5.4766 35.328-18.391 44.109-36.844 11.973-25.137 10.598-58.383-3.6797-88.969-9.9531-21.285-37.285-41.102-71.625-53.438l-0.03125-423.72c-0.65625-9.7031-5.3672-22.961-16.543-33.277l0.92188-158.29c-0.39062-14.008-9.2969-37.109-31.305-43.418l0.003906-361.79c0-8.6406-6.9961-15.652-15.652-15.652-8.6406 0-15.652 7.0117-15.652 15.652v363.6c-19.566 2.5195-30.082 21.098-30.898 35.328l-0.40625 163.55c-11.895 10.41-15.543 23.934-15.652 32.148l0.003907 421.23c-19.566 6.2148-37.379 15.84-52.355 29.004-28.238 24.762-41.492 50.934-39.445 77.809 3.0664 40.07 40.07 64.062 41.652 65.066l5.8711 3.7422-5.4766 764.27c-64.691 12.113-116.83 39.223-155.66 81.484-33.449 36.344-33.59 79.34-32.918 91.207-5.0547 2.7383-9.9375 5.4609-14.461 8.1406-68.258 40.523-116.11 97.809-128.02 153.25l-0.375 2.8789c-4.4453 89.188 16.012 148.48 16.891 150.96l1.6289 4.6016c-7.7773 52.449 3.1758 96.84 7.3555 110.91-10.348 46.551-7.0742 91.129 10.52 133.07 53.016 126.33 213.59 182.35 220.4 184.68l4.6484 1.582-11.238 554.01 35.641 2.4414 15.59-753.28 67.367-10.941-20.691 771.56 35.984 3.1602 20.879-780.61 33.199-5.3828-5.9336 778.05 31.32-2.3164 0.40625-54.297 42.949 10.426 0.03125 38.973 30.82-2.4414v-743.1l20.754 5.6836 19.598 733.49 36.172-3.3633-14.684-543.1c51.449-10.941 162.45-57.051 214.78-153.27 28.41-52.262 34.23-110.24 17.938-172.66 2.9336-12.578 10.59-51.82 2.793-99.402zm-217.62-100.6 20.254-55.238c48.883 15.637 87.277 38.316 114.9 68.637l-29.816 38.082c-29.383-19.879-64.535-37.516-105.34-51.48zm-561.21 95.824c2.7227-13.148 6.9492-26.672 13.273-40.18l21.727 24.809c-15.324 16.418-28.566 34.891-39.254 55.598 0.09375-12.051 1.2539-25.09 3.9453-38.645zm32.934-72.359c24.637-32.117 60.762-56.551 108.14-73.77l21.93 49.336c-37.379 13.727-72.25 32.227-101.89 56.582zm164.55-35.5-21.852-49.164c46.332-12.254 101.39-18.953 164.91-20.441v49.148c-47.219 1.0156-96.352 7.3711-143.06 20.457zm174.36-69.934c67.039 0.10938 125.28 5.7773 174.73 17.281l-19.848 54.094c-43.465-11.723-92.379-19.426-146.58-21.664-2.7227-0.10938-5.5391-0.09375-8.2969-0.17188zm346.76 125.36c17.594 29.316 24.684 59.227 26.734 84.648-12.633-18.875-29.457-37.379-50.133-54.781zm-319.68-1254c22.383 2.9102 37.285 12.43 46.582 21.414l-4.1797 791.52c-17.688-2.2539-34.777-3.7266-51.34-4.6016zm-27.082-733.76c0-4.8672 2.4883-10.879 15.965-10.988 2.7695-0.015625 14.684-0.29688 15.34 9.4375v143.5c-4.6328-0.79688-9.625-1.3008-15.137-1.3008h-0.6875c-5.6523 0-10.754 0.45312-15.48 1.1914zm-15.648 187.67c0.03125-2.2383 1.1602-15.699 31.352-15.699h0.4375c26.578 0 30.332 11.316 30.82 15.496v417.18c-21.602-4.2578-42.699-5.1172-62.609-2.7383zm-59.918 477.06c40.789-35.797 95.996-29.02 117.84-24.418 39.992 8.3906 68.492 27.734 75.004 41.684 9.625 20.629 11.098 42.949 3.8047 58.242-2.0508 4.2891-4.7891 7.7773-8.0312 10.676-12.035-16.762-41.699-46.77-99.781-46.77h-0.96875c-54.922 0-84.004 7.543-103.29 34.027-5.6172-6.4961-11.082-15.199-11.863-25.434-1.1602-14.984 8.0273-31.121 27.281-48.008zm20.582 86.352c8.625-15.652 22.102-17.203 46.191-17.359l-9.0625 808.23c-14.777 0.125-29.035 1.9727-42.809 3.3008zm-170.89 903.32c63.375-68.949 170.03-91.941 316.97-68.258 168.18 27.094 187.34 114.68 189.25 141.15-74.77-42.09-163.33-65.113-263.91-67.961-117.55-3.3633-204.5 18.578-265.04 44.297 1.7227-13.23 7.0117-32.152 22.727-49.23zm-166.4 234.41c18.188-79.387 144.23-200.71 407.68-193.49 101.18 2.8789 189.2 26.906 261.62 71.422 72.641 44.672 112.62 95.652 120.77 117.3 9.8281 26.188 1.1758 70.34-8.3125 102.9-6.3867-14.148-14.352-28.363-24.793-42.246-63.516-84.492-186.86-129.25-366.67-129.25h-1.6289c-184.1 0-308.22 45.797-368.92 131.54-6.2148 8.7812-11.27 17.719-15.793 26.672-3.2227-22.465-5.5078-51.34-3.957-84.836zm177.39 281.77 52.574 82.457-0.42188 21.129-92.129-68.055c9.2188-10.848 22.242-23.418 39.977-35.531zm-59.305 65.988 110.57 81.672-1.4727 72.891c-33.152-15.055-125.23-65.484-109.09-154.56zm143.88 2.0039 1.0781-0.6875-54.438-85.336c13.93-6.7461 29.848-12.867 47.941-17.938l49.023 96.871zm297.02 57.273 98.453-70.777c12.898 28.863 5.0547 52.906 4.7109 53.891l-0.96875 4.2422c-0.32812 3.0039-9.4688 72.172-99.562 109.57zm-4.4609-41.168-19.613-5.3828 65.941-80.438c15.449 8.6875 27.219 17.766 36 26.641zm-57.633-15.824-23.07-6.3242 40.367-95.43c20.301 4.7578 37.785 10.191 52.969 16.043zm-58.07-15.949-26.859-7.3867-4.0547-93.805c12.301 0.8125 25.012 1.9102 38.316 3.5547 11.27 1.3789 21.758 2.9883 31.883 4.6953zm-66.992-102.46 4.3047 99.578-33.277 5.3984-50.055-98.906c23.309-3.9883 49.57-6.1953 79.027-6.0703zm99.125 757.25-42.074-10.191 0.25-32.258 41.809 10.145zm-41.555-79.418 0.25-32.242 41.227 10 0.03125 32.305zm0.53125-69.199 0.26562-32.273 40.648 9.8594 0.03125 32.32zm0.53125-69.246 0.25-32.242 40.086 9.7344 0.03125 32.289zm0.53516-69.18 0.25-32.258 39.492 9.5781 0.03125 32.305zm0.51562-69.215 0.25-32.273 38.926 9.4531 0.03125 32.305zm0.53125-69.23 0.25-32.258 38.348 9.3125 0.03125 32.32zm0.53125-69.215 0.26562-32.258 37.77 9.1719 0.03125 32.305zm0.53516-69.211 0.32812-44.031 37.109 10.016 0.03125 43.121zm-4.7578 622.95 0.25-32.273 42.371 10.285 0.03125 32.32zm318.49-636.92c-41.039 75.508-130.01 120.25-184.15 133.68l-0.0625-2.3477 3.5547-1.332c111.21-41.43 128.33-125.89 130.52-140.78 1.0469-10.395 12.445-50.133-13.961-93.191-34.23-55.832-112.34-91.613-232.14-106.31-292.82-35.969-363.16 125.45-366.01 132.34l-0.96875 3.082c-24.293 112.62 82.645 183.19 142.76 204.86l-0.0625 3.5234c-28.676-11.145-151.39-63.719-192.68-162.34-21.477-51.262-17.578-108.06 11.566-168.79 12.301-25.637 29.41-47.332 49.664-65.895l10.441-9.1406-0.078125-0.09375c76.633-62.641 193.76-83.145 293.89-78.934 116.52 4.7891 220.87 39.602 287.19 91.535l3.1133 2.4414c29.473 23.746 51.121 50.934 62.391 80.422 25.055 65.457 23.367 125.11-4.9805 177.27z"/>
</svg>
