<?xml version="1.0" encoding="UTF-8"?>
<svg width="1200pt" height="1200pt" version="1.1" viewBox="0 0 1200 1200" xmlns="http://www.w3.org/2000/svg">
 <path d="m736.04 848.32 1.6289-4.0273c1.418-3.5234 13.652-34.906 6.543-53.844-3.7109-9.8672-17.281-26.234-38.676-40.793l0.30859-3.8047c0.042968-0.53906 0.95312-13.277-8.1172-27.355-11.301-17.551-32.273-29.082-62.191-34.414l1.3359-253.24c6.5469-1.8242 11.777-6.1289 14.703-12.281 3.9922-8.3789 3.5312-19.461-1.2266-29.656-3.3164-7.0938-12.43-13.699-23.875-17.812l-0.011719-141.24c-0.21875-3.2344-1.7891-7.6523-5.5156-11.094l0.30859-52.762c-0.12891-4.668-3.0977-12.371-10.434-14.473l-0.003906-120.59c0-2.8789-2.332-5.2188-5.2188-5.2188-2.8789 0-5.2188 2.3359-5.2188 5.2188v121.2c-6.5234 0.83984-10.027 7.0312-10.301 11.777l-0.13672 54.516c-3.9648 3.4688-5.1797 7.9766-5.2188 10.715l0.007812 140.41c-6.5234 2.0703-12.461 5.2812-17.453 9.668-9.4141 8.2539-13.832 16.977-13.148 25.938 1.0234 13.355 13.355 21.355 13.883 21.688l1.957 1.2461-1.8242 254.75c-21.562 4.0391-38.941 13.074-51.887 27.16-11.148 12.113-11.195 26.445-10.973 30.402-1.6836 0.91406-3.3125 1.8203-4.8203 2.7148-22.754 13.508-38.703 32.602-42.672 51.082l-0.125 0.96094c-1.4805 29.73 5.3359 49.492 5.6289 50.32l0.54297 1.5352c-2.5938 17.484 1.0586 32.281 2.4531 36.969-3.4492 15.516-2.3594 30.375 3.5078 44.359 17.672 42.109 71.195 60.781 73.465 61.559l1.5508 0.52734-3.7461 184.67 11.879 0.8125 5.1953-251.09 22.457-3.6484-6.8984 257.19 11.996 1.0547 6.9609-260.2 11.066-1.793-1.9766 259.35 10.441-0.77344 0.13672-18.098 14.316 3.4766 0.011719 12.992 10.273-0.8125v-247.7l6.918 1.8945 6.5312 244.5 12.059-1.1211-4.8945-181.03c17.148-3.6484 54.152-19.016 71.594-51.09 9.4688-17.422 11.41-36.746 5.9805-57.555 0.96875-4.1875 3.5195-17.27 0.92188-33.129zm-72.543-33.531 6.75-18.414c16.293 5.2109 29.094 12.773 38.301 22.879l-9.9375 12.695c-9.793-6.6289-21.512-12.508-35.113-17.16zm-187.07 31.941c0.90625-4.3828 2.3164-8.8906 4.4258-13.395l7.2422 8.2695c-5.1094 5.4727-9.5234 11.629-13.086 18.531 0.03125-4.0156 0.41797-8.3633 1.3164-12.883zm10.98-24.121c8.2109-10.707 20.254-18.852 36.047-24.59l7.3086 16.445c-12.461 4.5742-24.082 10.742-33.965 18.859zm54.848-11.832-7.2852-16.387c15.445-4.0859 33.797-6.3164 54.969-6.8125v16.383c-15.734 0.33594-32.113 2.4531-47.684 6.8164zm58.121-23.312c22.348 0.035156 41.762 1.9258 58.242 5.7617l-6.6172 18.031c-14.488-3.9062-30.793-6.4766-48.859-7.2227-0.90625-0.035156-1.8477-0.03125-2.7656-0.058594zm115.59 41.785c5.8633 9.7734 8.2266 19.742 8.9102 28.215-4.2109-6.293-9.8203-12.461-16.711-18.262zm-106.56-418.01c7.4609 0.96875 12.43 4.1445 15.527 7.1367l-1.3945 263.84c-5.8945-0.75-11.594-1.2422-17.113-1.5352zm-9.0273-244.59c0-1.6211 0.82812-3.625 5.3203-3.6641 0.92188-0.003906 4.8945-0.097656 5.1133 3.1445v47.832c-1.543-0.26562-3.207-0.43359-5.0469-0.43359h-0.23047c-1.8828 0-3.5859 0.15234-5.1602 0.39844zm-5.2148 62.559c0.011719-0.74609 0.38672-5.2344 10.449-5.2344h0.14453c8.8594 0 10.109 3.7734 10.273 5.1641v139.06c-7.1992-1.418-14.234-1.707-20.871-0.91406zm-19.973 159.02c13.598-11.934 32-9.6719 39.281-8.1406 13.332 2.7969 22.832 9.2461 25 13.895 3.207 6.875 3.6992 14.316 1.2695 19.414-0.68359 1.4297-1.5977 2.5938-2.6758 3.5586-4.0117-5.5859-13.898-15.59-33.262-15.59h-0.32422c-18.309 0-28 2.5156-34.43 11.344-1.8711-2.1641-3.6953-5.0664-3.9531-8.4766-0.38672-4.9961 2.6758-10.375 9.0938-16.004zm6.8594 28.785c2.875-5.2188 7.3672-5.7344 15.398-5.7852l-3.0195 269.41c-4.9258 0.042969-9.6797 0.65625-14.27 1.1016zm-56.961 301.11c21.125-22.984 56.676-30.648 105.66-22.754 56.062 9.0312 62.445 38.227 63.082 47.051-24.922-14.031-54.445-21.703-87.969-22.652-39.184-1.1211-68.164 6.1914-88.348 14.766 0.57422-4.4102 2.3398-10.719 7.5781-16.41zm-55.469 78.137c6.0625-26.461 48.078-66.902 135.89-64.496 33.727 0.96094 63.066 8.9688 87.207 23.809 24.215 14.891 37.539 31.883 40.258 39.098 3.2773 8.7305 0.39062 23.445-2.7695 34.301-2.1289-4.7148-4.7852-9.4531-8.2656-14.082-21.172-28.164-62.285-43.086-122.22-43.086h-0.54297c-61.367 0-102.74 15.266-122.97 43.848-2.0703 2.9258-3.7578 5.9062-5.2656 8.8906-1.0703-7.4922-1.832-17.117-1.3164-28.281zm59.129 93.922 17.523 27.484-0.14062 7.043-30.711-22.684c3.0781-3.6133 7.418-7.8047 13.328-11.844zm-19.766 21.996 36.855 27.223-0.49219 24.297c-11.051-5.0156-41.746-21.824-36.363-51.52zm47.957 0.66797 0.35938-0.23047-18.145-28.445c4.6445-2.25 9.9492-4.2891 15.98-5.9805l16.34 32.289zm99.004 19.094 32.816-23.594c4.3008 9.6211 1.6836 17.637 1.5703 17.965l-0.32422 1.4141c-0.10938 1-3.1562 24.059-33.188 36.523zm-1.4844-13.723-6.5391-1.793 21.98-26.812c5.1484 2.8945 9.0742 5.9219 12 8.8789zm-19.211-5.2773-7.6914-2.1094 13.457-31.809c6.7656 1.5859 12.594 3.3984 17.656 5.3477zm-19.359-5.3164-8.9531-2.4609-1.3516-31.27c4.1016 0.26953 8.3359 0.63672 12.773 1.1836 3.7578 0.46094 7.2539 0.99609 10.629 1.5664zm-22.328-34.152 1.4336 33.191-11.094 1.8008-16.684-32.969c7.7695-1.3281 16.523-2.0625 26.344-2.0234zm33.039 252.42-14.023-3.3984 0.082032-10.754 13.938 3.3828zm-13.852-26.473 0.082031-10.746 13.742 3.332 0.011719 10.77zm0.17969-23.066 0.089844-10.758 13.551 3.2852 0.011719 10.773zm0.17578-23.082 0.082032-10.746 13.363 3.2461 0.011719 10.762zm0.17969-23.059 0.082031-10.754 13.164 3.1914 0.011718 10.77zm0.17188-23.074 0.082031-10.758 12.977 3.1523 0.011719 10.77zm0.17578-23.074 0.082031-10.754 12.781 3.1055 0.011719 10.773zm0.17578-23.074 0.089844-10.754 12.59 3.0586 0.011719 10.77zm0.17969-23.07 0.10938-14.676 12.371 3.3398 0.011718 14.375zm-1.5859 207.65 0.082031-10.758 14.125 3.4297 0.011719 10.773zm106.16-212.3c-13.68 25.168-43.336 40.086-61.383 44.562l-0.019531-0.78125 1.1836-0.44531c37.07-13.809 42.777-41.965 43.508-46.926 0.34766-3.4648 4.1484-16.711-4.6523-31.062-11.41-18.609-37.445-30.539-77.379-35.438-97.605-11.988-121.05 41.816-122 44.113l-0.32422 1.0273c-8.0977 37.539 27.547 61.062 47.586 68.285l-0.019531 1.1758c-9.5586-3.7148-50.461-21.238-64.227-54.113-7.1602-17.086-5.8594-36.02 3.8555-56.266 4.1016-8.5469 9.8047-15.777 16.555-21.965l3.4805-3.0469-0.027344-0.03125c25.543-20.879 64.586-27.715 97.961-26.312 38.84 1.5977 73.621 13.199 95.73 30.512l1.0391 0.8125c9.8242 7.9141 17.039 16.977 20.797 26.809 8.3516 21.816 7.7891 41.699-1.6602 59.09z"/>
</svg>
