<?xml version="1.0" encoding="UTF-8"?>
<svg width="100pt" height="100pt" version="1.1" viewBox="0 0 100 100" xmlns="http://www.w3.org/2000/svg">
 <path d="m61.336 70.691 0.13672-0.33594c0.11719-0.29297 1.1367-2.9102 0.54688-4.4883-0.30859-0.82031-1.4414-2.1875-3.2227-3.3984l0.027344-0.31641c0.003906-0.042969 0.078125-1.1055-0.67578-2.2812-0.94141-1.4609-2.6914-2.4219-5.1836-2.8672l0.10938-21.102c0.54688-0.15234 0.98047-0.51172 1.2266-1.0234 0.33203-0.69922 0.29297-1.6211-0.10156-2.4727-0.27734-0.58984-1.0352-1.1406-1.9883-1.4844v-11.77c-0.019532-0.26953-0.14844-0.63672-0.46094-0.92578l0.027344-4.3984c-0.011719-0.39062-0.25781-1.0312-0.87109-1.207l-0.003906-10.043c0-0.23828-0.19531-0.43359-0.43359-0.43359s-0.43359 0.19531-0.43359 0.43359v10.102c-0.54297 0.070312-0.83594 0.58594-0.85938 0.98047l-0.011719 4.543c-0.33203 0.28906-0.43359 0.66406-0.43359 0.89453l-0.003907 11.699c-0.54297 0.17188-1.0391 0.44141-1.4531 0.80469-0.78516 0.6875-1.1523 1.4141-1.0938 2.1602 0.085937 1.1133 1.1133 1.7812 1.1562 1.8086l0.16406 0.10547-0.15234 21.23c-1.7969 0.33594-3.2461 1.0898-4.3242 2.2617-0.92969 1.0078-0.93359 2.2031-0.91406 2.5352-0.14062 0.074219-0.27734 0.15234-0.40234 0.22656-1.8945 1.125-3.2266 2.7188-3.5547 4.2578l-0.011719 0.078125c-0.125 2.4766 0.44531 4.125 0.46875 4.1953l0.046875 0.12891c-0.21484 1.457 0.089844 2.6914 0.20312 3.082-0.28906 1.293-0.19531 2.5312 0.29297 3.6953 1.4727 3.5078 5.9336 5.0664 6.1211 5.1289l0.12891 0.042968-0.3125 15.391 0.98828 0.066406 0.43359-20.926 1.8711-0.30469-0.57422 21.434 1 0.085937 0.57812-21.684 0.92188-0.14844-0.16406 21.613 0.87109-0.0625 0.011719-1.5078 1.1914 0.28906v1.082l0.85547-0.066407v-20.641l0.57812 0.15625 0.54297 20.375 1.0039-0.09375-0.40625-15.086c1.4297-0.30469 4.5117-1.5859 5.9648-4.2578 0.78906-1.4531 0.94922-3.0625 0.5-4.7969 0.082032-0.35156 0.29688-1.4414 0.078126-2.7656zm-6.043-2.793 0.5625-1.5352c1.3594 0.43359 2.4258 1.0625 3.1914 1.9062l-0.82812 1.0586c-0.81641-0.55078-1.793-1.043-2.9258-1.4297zm-15.59 2.6602c0.074219-0.36328 0.19141-0.74219 0.36719-1.1172l0.60156 0.6875c-0.42578 0.45703-0.79297 0.96875-1.0898 1.543 0.003907-0.33594 0.035157-0.69531 0.10938-1.0742zm0.91406-2.0078c0.68359-0.89062 1.6875-1.5703 3.0039-2.0508l0.60938 1.3711c-1.0391 0.38281-2.0078 0.89453-2.832 1.5703zm4.5703-0.98828-0.60547-1.3672c1.2852-0.33984 2.8164-0.52734 4.582-0.56641v1.3633c-1.3125 0.03125-2.6797 0.20703-3.9766 0.57031zm4.8438-1.9414c1.8633 0.003906 3.4805 0.16016 4.8516 0.48047l-0.55078 1.5039c-1.207-0.32422-2.5664-0.53906-4.0703-0.60156-0.074219-0.003906-0.15234-0.003906-0.23047-0.003906zm9.6328 3.4844c0.48828 0.8125 0.6875 1.6445 0.74219 2.3516-0.35156-0.52344-0.81641-1.0391-1.3945-1.5234zm-8.8789-34.836c0.62109 0.082031 1.0352 0.34375 1.293 0.59375l-0.11719 21.988c-0.49219-0.0625-0.96484-0.10156-1.4258-0.12891zm-0.75391-20.383c0-0.13672 0.070312-0.30078 0.44531-0.30469 0.078126 0 0.40625-0.007812 0.42578 0.26172v3.9844c-0.12891-0.023437-0.26562-0.035156-0.42188-0.035156h-0.019531c-0.15625 0-0.29688 0.011719-0.42969 0.03125zm-0.43359 5.2148c0-0.0625 0.03125-0.4375 0.87109-0.4375h0.011719c0.73828 0 0.84375 0.3125 0.85547 0.42969v11.59c-0.60156-0.11719-1.1875-0.14062-1.7383-0.074219zm-1.6641 13.25c1.1328-0.99609 2.668-0.80469 3.2734-0.67969 1.1094 0.23438 1.9023 0.76953 2.082 1.1562 0.26563 0.57422 0.30859 1.1914 0.10547 1.6172-0.058593 0.11719-0.13281 0.21484-0.22266 0.29688-0.33594-0.46484-1.1602-1.3008-2.7734-1.3008h-0.027344c-1.5273 0-2.332 0.21094-2.8672 0.94531-0.15625-0.17969-0.30859-0.42188-0.32812-0.70703-0.035156-0.41016 0.22266-0.85938 0.75781-1.3281zm0.57031 2.3984c0.23828-0.43359 0.61328-0.47656 1.2812-0.48047l-0.25 22.449c-0.41016 0.003906-0.80469 0.054688-1.1875 0.089844zm-4.7461 25.094c1.7617-1.9141 4.7227-2.5547 8.8047-1.8945 4.6719 0.75391 5.2031 3.1875 5.2578 3.9219-2.0781-1.168-4.5352-1.8086-7.332-1.8867-3.2656-0.09375-5.6797 0.51562-7.3633 1.2305 0.046875-0.37109 0.19531-0.89844 0.63281-1.3711zm-4.625 6.5117c0.50391-2.207 4.0078-5.5742 11.324-5.375 2.8086 0.078125 5.2539 0.74609 7.2656 1.9844 2.0195 1.2422 3.1289 2.6562 3.3555 3.2578 0.27344 0.72656 0.03125 1.9531-0.23047 2.8594-0.17578-0.39453-0.39844-0.78906-0.6875-1.1719-1.7656-2.3477-5.1914-3.5898-10.184-3.5898h-0.046874c-5.1133 0-8.5625 1.2734-10.246 3.6523-0.17188 0.24219-0.3125 0.49219-0.4375 0.74219-0.089844-0.62891-0.15625-1.4297-0.11328-2.3594zm4.9297 7.8281 1.4609 2.2891-0.011719 0.58594-2.5586-1.8906c0.25391-0.30078 0.61719-0.64844 1.1094-0.98438zm-1.6484 1.832 3.0703 2.2695-0.039063 2.0234c-0.92187-0.41797-3.4805-1.8203-3.0312-4.293zm3.9961 0.054687 0.03125-0.019531-1.5117-2.3711c0.38672-0.1875 0.82812-0.35547 1.332-0.5l1.3633 2.6914zm8.25 1.5898 2.7344-1.9648c0.35938 0.80078 0.14062 1.4688 0.13281 1.4961l-0.027344 0.11719c-0.007812 0.082031-0.26172 2.0039-2.7656 3.043zm-0.12109-1.1406-0.54297-0.14844 1.832-2.2344c0.42969 0.24219 0.75781 0.49219 1 0.73828zm-1.6016-0.44141-0.64062-0.17578 1.1211-2.6523c0.5625 0.13281 1.0508 0.28125 1.4727 0.44531zm-1.6133-0.44141-0.74609-0.20703-0.11328-2.6055c0.33984 0.023437 0.69531 0.054687 1.0625 0.097656 0.3125 0.039063 0.60547 0.082031 0.88672 0.12891zm-1.8633-2.8477 0.12109 2.7656-0.92578 0.14844-1.3906-2.7461c0.64844-0.10938 1.3789-0.17188 2.1953-0.16797zm2.7539 21.035-1.168-0.28125 0.007813-0.89453 1.1602 0.28125zm-1.1523-2.207 0.007812-0.89453 1.1445 0.27734v0.89844zm0.015625-1.9219 0.007813-0.89844 1.1289 0.27344v0.89844zm0.011719-1.9219 0.007812-0.89453 1.1133 0.26953v0.89844zm0.015625-1.9219 0.007812-0.89453 1.0977 0.26562v0.89844zm0.015625-1.9219 0.007812-0.89844 1.082 0.26172v0.89844zm0.015625-1.9258 0.007812-0.89453 1.0664 0.25781v0.89844zm0.011719-1.9219 0.007812-0.89453 1.0508 0.25391v0.89844zm0.015624-1.9219 0.007813-1.2227 1.0312 0.27734v1.1992zm-0.13281 17.305 0.007812-0.89844 1.1758 0.28516v0.89844zm8.8477-17.691c-1.1406 2.0977-3.6094 3.3398-5.1133 3.7148v-0.066406l0.097656-0.035156c3.0898-1.1523 3.5664-3.4961 3.625-3.9102 0.027344-0.28906 0.34375-1.3945-0.38672-2.5898-0.94922-1.5508-3.1211-2.543-6.4492-2.9531-8.1328-1-10.086 3.4844-10.168 3.6758l-0.027344 0.085937c-0.67578 3.1289 2.2969 5.0898 3.9648 5.6914v0.097656c-0.79688-0.30859-4.207-1.7695-5.3516-4.5078-0.59766-1.4258-0.48828-3 0.32031-4.6875 0.33984-0.71094 0.81641-1.3164 1.3789-1.832l0.28906-0.25391-0.003906-0.003906c2.1289-1.7383 5.3828-2.3086 8.1641-2.1914 3.2383 0.13281 6.1367 1.1016 7.9766 2.543l0.085938 0.066407c0.82031 0.66016 1.4219 1.4141 1.7344 2.2344 0.69922 1.8125 0.65234 3.4727-0.13672 4.9219z"/>
</svg>
